# xmcd CD database file
#
# Track frame offsets:
#	150
#	16975
#	30150
#	47030
#	65187
#	84775
#	105175
#	120217
#	137687
#	155130
#	174642
#	189050
#	204680
#	218692
#	237112
#	254875
#	269737
#	281887
#
# Disc length: 3966 seconds
#
# Revision: 1
# Processed by: cddbd v1.5.2PL0 Copyright (c) Steve Scherf et al.
# Submitted via: CDex 1.70beta2
#
DISCID=fb0f7c12
DTITLE=Various Artist - 魅惑のムード歌謡デラックス DISC1
DYEAR=2007
DGENRE=JPop
TTITLE0=石原裕次郎/夜霧よ今夜も有難う	
TTITLE1=水原弘/黒い花びら
TTITLE2=鶴岡雅義と東京ロマンチカ/小樽のひとよ
TTITLE3=石原裕次郎/恋の町札幌
TTITLE4=箱崎晋一朗/抱擁
TTITLE5=勝彩也/恋あざみ
TTITLE6=石原裕次郎/粋な別れ
TTITLE7=敏いとうとハッピー&ブルー/わたし祈ってます
TTITLE8=増位山太志郎/そんな女のひとりごと
TTITLE9=石原裕次郎/北の旅人
TTITLE10=八代亜紀/なみだ恋
TTITLE11=平浩二/バス・ストップ
TTITLE12=石原裕次郎/港町・涙町・別れ町
TTITLE13=内山田洋とクール・ファイブ/長崎は今日も雨だった
TTITLE14=日野美歌/氷雨
TTITLE15=石原裕次郎/夜霧の慕情
TTITLE16=水原弘/黄昏のビギン
TTITLE17=石原裕次郎、八代亜紀/別れの夜明け
EXTD=YEAR: 2007
EXTT0=
EXTT1=
EXTT2=
EXTT3=
EXTT4=
EXTT5=
EXTT6=
EXTT7=
EXTT8=
EXTT9=
EXTT10=
EXTT11=
EXTT12=
EXTT13=
EXTT14=
EXTT15=
EXTT16=
EXTT17=
PLAYORDER=
